{
  "accessors": [
    {
      "bufferView": 2,
      "componentType": 5126,
      "count": 65533,
      "max": [
        0.9469050168991089,
        0.02058270014822483,
        0.6439779996871948
      ],
      "min": [
        -0.9796259999275208,
        -0.014332300052046776,
        -0.6439769864082336
      ],
      "type": "VEC3"
    },
    {
      "bufferView": 2,
      "byteOffset": 786396,
      "componentType": 5126,
      "count": 65533,
      "max": [
        1.0,
        1.0,
        1.0
      ],
      "min": [
        -1.0,
        -1.0,
        -1.0
      ],
      "type": "VEC3"
    },
    {
      "bufferView": 3,
      "componentType": 5126,
      "count": 65533,
      "max": [
        1.0,
        1.0,
        0.9999998807907104,
        1.0
      ],
      "min": [
        -1.0,
        -1.0,
        -1.0,
        -1.0
      ],
      "type": "VEC4"
    },
    {
      "bufferView": 1,
      "componentType": 5126,
      "count": 65533,
      "max": [
        0.9768159985542297,
        0.9937459826469421
      ],
      "min": [
        0.007332120090723038,
        0.00693834014236927
      ],
      "type": "VEC2"
    },
    {
      "bufferView": 0,
      "componentType": 5125,
      "count": 113079,
      "type": "SCALAR"
    },
    {
      "bufferView": 2,
      "byteOffset": 1572792,
      "componentType": 5126,
      "count": 65532,
      "max": [
        -0.9463019967079163,
        0.02108589932322502,
        0.05424470081925392
      ],
      "min": [
        -0.9800540208816528,
        -0.01279779989272356,
        -0.054204098880290985
      ],
      "type": "VEC3"
    },
    {
      "bufferView": 2,
      "byteOffset": 2359176,
      "componentType": 5126,
      "count": 65532,
      "max": [
        1.0,
        0.990594744682312,
        1.0
      ],
      "min": [
        -1.0,
        -0.990594744682312,
        -1.0
      ],
      "type": "VEC3"
    },
    {
      "bufferView": 3,
      "byteOffset": 1048528,
      "componentType": 5126,
      "count": 65532,
      "max": [
        0.9999611973762512,
        1.0,
        0.3904261291027069,
        1.0
      ],
      "min": [
        -1.0,
        -1.0,
        -0.38672515749931335,
        1.0
      ],
      "type": "VEC4"
    },
    {
      "bufferView": 1,
      "byteOffset": 524264,
      "componentType": 5126,
      "count": 65532,
      "max": [
        0.2502569854259491,
        0.9923959970474243
      ],
      "min": [
        0.007332120090723038,
        0.7492430210113525
      ],
      "type": "VEC2"
    },
    {
      "bufferView": 0,
      "byteOffset": 452316,
      "componentType": 5125,
      "count": 101442,
      "type": "SCALAR"
    },
    {
      "bufferView": 2,
      "byteOffset": 3145560,
      "componentType": 5126,
      "count": 65534,
      "max": [
        -0.9463019967079163,
        0.02108589932322502,
        0.05352519825100899
      ],
      "min": [
        -0.9800540208816528,
        -0.013121699914336205,
        -0.054542798548936844
      ],
      "type": "VEC3"
    },
    {
      "bufferView": 2,
      "byteOffset": 3931968,
      "componentType": 5126,
      "count": 65534,
      "max": [
        1.0,
        1.0,
        1.0
      ],
      "min": [
        -1.0,
        -1.0,
        -1.0
      ],
      "type": "VEC3"
    },
    {
      "bufferView": 3,
      "byteOffset": 2097040,
      "componentType": 5126,
      "count": 65534,
      "max": [
        0.6860558390617371,
        0.9999997615814209,
        0.24972431361675262,
        1.0
      ],
      "min": [
        -1.0,
        -0.5253499746322632,
        -0.3333517611026764,
        1.0
      ],
      "type": "VEC4"
    },
    {
      "bufferView": 1,
      "byteOffset": 1048520,
      "componentType": 5126,
      "count": 65534,
      "max": [
        0.25185200572013855,
        0.9937469959259033
      ],
      "min": [
        0.007332120090723038,
        0.7492430210113525
      ],
      "type": "VEC2"
    },
    {
      "bufferView": 0,
      "byteOffset": 858084,
      "componentType": 5125,
      "count": 105738,
      "type": "SCALAR"
    },
    {
      "bufferView": 2,
      "byteOffset": 4718376,
      "componentType": 5126,
      "count": 65534,
      "max": [
        0.980027973651886,
        0.021905500441789627,
        0.055435601621866226
      ],
      "min": [
        -0.980879008769989,
        -0.014445999637246132,
        -0.0554363988339901
      ],
      "type": "VEC3"
    },
    {
      "bufferView": 2,
      "byteOffset": 5504784,
      "componentType": 5126,
      "count": 65534,
      "max": [
        1.0,
        1.0,
        1.0
      ],
      "min": [
        -1.0,
        -1.0,
        -1.0
      ],
      "type": "VEC3"
    },
    {
      "bufferView": 3,
      "byteOffset": 3145584,
      "componentType": 5126,
      "count": 65534,
      "max": [
        1.0,
        1.0,
        0.9999995231628418,
        1.0
      ],
      "min": [
        -1.0,
        -0.9999898076057434,
        -1.0,
        -1.0
      ],
      "type": "VEC4"
    },
    {
      "bufferView": 1,
      "byteOffset": 1572792,
      "componentType": 5126,
      "count": 65534,
      "max": [
        0.7595599889755249,
        0.9937469959259033
      ],
      "min": [
        0.007332120090723038,
        0.6411499977111816
      ],
      "type": "VEC2"
    },
    {
      "bufferView": 0,
      "byteOffset": 1281036,
      "componentType": 5125,
      "count": 127620,
      "type": "SCALAR"
    },
    {
      "bufferView": 2,
      "byteOffset": 6291192,
      "componentType": 5126,
      "count": 65532,
      "max": [
        1.0,
        0.021905500441789627,
        0.6800000071525574
      ],
      "min": [
        -1.0,
        -0.021905500441789627,
        -0.6800000071525574
      ],
      "type": "VEC3"
    },
    {
      "bufferView": 2,
      "byteOffset": 7077576,
      "componentType": 5126,
      "count": 65532,
      "max": [
        1.0,
        1.0,
        1.0
      ],
      "min": [
        -1.0,
        -1.0,
        -1.0
      ],
      "type": "VEC3"
    },
    {
      "bufferView": 3,
      "byteOffset": 4194128,
      "componentType": 5126,
      "count": 65532,
      "max": [
        1.0,
        1.0,
        1.0,
        1.0
      ],
      "min": [
        -1.0,
        -1.0,
        -1.0,
        -1.0
      ],
      "type": "VEC4"
    },
    {
      "bufferView": 1,
      "byteOffset": 2097064,
      "componentType": 5126,
      "count": 65532,
      "max": [
        0.9880579710006714,
        0.9937459826469421
      ],
      "min": [
        0.013809099793434143,
        0.06630869954824448
      ],
      "type": "VEC2"
    },
    {
      "bufferView": 0,
      "byteOffset": 1791516,
      "componentType": 5125,
      "count": 132621,
      "type": "SCALAR"
    },
    {
      "bufferView": 2,
      "byteOffset": 7863960,
      "componentType": 5126,
      "count": 65534,
      "max": [
        0.9750739932060242,
        0.021010499447584152,
        0.054203301668167114
      ],
      "min": [
        0.9484900236129761,
        -0.004481819923967123,
        -0.05424550175666809
      ],
      "type": "VEC3"
    },
    {
      "bufferView": 2,
      "byteOffset": 8650368,
      "componentType": 5126,
      "count": 65534,
      "max": [
        1.0,
        0.990594744682312,
        0.14208199083805084
      ],
      "min": [
        -1.0,
        -0.990594744682312,
        -0.14208199083805084
      ],
      "type": "VEC3"
    },
    {
      "bufferView": 3,
      "byteOffset": 5242640,
      "componentType": 5126,
      "count": 65534,
      "max": [
        0.9999644160270691,
        1.0,
        0.3936280608177185,
        1.0
      ],
      "min": [
        -0.9961511492729187,
        -1.0,
        -0.39374393224716187,
        1.0
      ],
      "type": "VEC4"
    },
    {
      "bufferView": 1,
      "byteOffset": 2621320,
      "componentType": 5126,
      "count": 65534,
      "max": [
        0.7570570111274719,
        0.9897019863128662
      ],
      "min": [
        0.5151450037956238,
        0.7492430210113525
      ],
      "type": "VEC2"
    },
    {
      "bufferView": 0,
      "byteOffset": 2322000,
      "componentType": 5125,
      "count": 99063,
      "type": "SCALAR"
    },
    {
      "bufferView": 2,
      "byteOffset": 9436776,
      "componentType": 5126,
      "count": 38225,
      "max": [
        0.9796000123023987,
        0.021905500441789627,
        0.055435601621866226
      ],
      "min": [
        -0.9808639883995056,
        -0.01442909985780716,
        -0.05542999878525734
      ],
      "type": "VEC3"
    },
    {
      "bufferView": 2,
      "byteOffset": 9895476,
      "componentType": 5126,
      "count": 38225,
      "max": [
        1.0,
        1.0,
        1.0
      ],
      "min": [
        -1.0,
        -1.0,
        -1.0
      ],
      "type": "VEC3"
    },
    {
      "bufferView": 3,
      "byteOffset": 6291184,
      "componentType": 5126,
      "count": 38225,
      "max": [
        0.9999722242355347,
        0.9999999403953552,
        0.9999954104423523,
        1.0
      ],
      "min": [
        -0.9999998211860657,
        -0.9999739527702332,
        -0.9999997615814209,
        -1.0
      ],
      "type": "VEC4"
    },
    {
      "bufferView": 1,
      "byteOffset": 3145592,
      "componentType": 5126,
      "count": 38225,
      "max": [
        0.7596650123596191,
        0.9937459826469421
      ],
      "min": [
        0.3124670088291168,
        0.7460619807243347
      ],
      "type": "VEC2"
    },
    {
      "bufferView": 0,
      "byteOffset": 2718252,
      "componentType": 5125,
      "count": 63417,
      "type": "SCALAR"
    }
  ],
  "asset": {
    "extras": {
      "author": "FrancescoMilanese (https://sketchfab.com/FrancescoMilanese)",
      "license": "SKETCHFAB Standard (https://sketchfab.com/licenses)",
      "source": "https://sketchfab.com/3d-models/football-soccer-field-39d4cab4629c453693cb1c49b6528d59",
      "title": "Football soccer field"
    },
    "generator": "Sketchfab-12.68.0",
    "version": "2.0"
  },
  "bufferViews": [
    {
      "buffer": 0,
      "byteLength": 2971920,
      "name": "floatBufferViews",
      "target": 34963
    },
    {
      "buffer": 0,
      "byteLength": 3451392,
      "byteOffset": 2971920,
      "byteStride": 8,
      "name": "floatBufferViews",
      "target": 34962
    },
    {
      "buffer": 0,
      "byteLength": 10354176,
      "byteOffset": 6423312,
      "byteStride": 12,
      "name": "floatBufferViews",
      "target": 34962
    },
    {
      "buffer": 0,
      "byteLength": 6902784,
      "byteOffset": 16777488,
      "byteStride": 16,
      "name": "floatBufferViews",
      "target": 34962
    }
  ],
  "buffers": [
    {
      "byteLength": 23680272,
      "uri": "scene.bin"
    }
  ],
  "images": [
    {
      "uri": "textures/football_soccer_field_baseColor.png"
    },
    {
      "uri": "textures/football_soccer_field_metallicRoughness.png"
    },
    {
      "uri": "textures/football_soccer_field_emissive.jpeg"
    },
    {
      "uri": "textures/football_soccer_field_normal.png"
    }
  ],
  "materials": [
    {
      "alphaMode": "BLEND",
      "doubleSided": true,
      "emissiveFactor": [
        1.0,
        1.0,
        1.0
      ],
      "emissiveTexture": {
        "index": 2
      },
      "name": "football_soccer_field",
      "normalTexture": {
        "index": 3
      },
      "occlusionTexture": {
        "index": 1
      },
      "pbrMetallicRoughness": {
        "baseColorTexture": {
          "index": 0
        },
        "metallicRoughnessTexture": {
          "index": 1
        }
      }
    }
  ],
  "meshes": [
    {
      "name": "defaultMaterial",
      "primitives": [
        {
          "attributes": {
            "NORMAL": 1,
            "POSITION": 0,
            "TANGENT": 2,
            "TEXCOORD_0": 3
          },
          "indices": 4,
          "material": 0,
          "mode": 4
        }
      ]
    },
    {
      "name": "defaultMaterial",
      "primitives": [
        {
          "attributes": {
            "NORMAL": 6,
            "POSITION": 5,
            "TANGENT": 7,
            "TEXCOORD_0": 8
          },
          "indices": 9,
          "material": 0,
          "mode": 4
        }
      ]
    },
    {
      "name": "defaultMaterial",
      "primitives": [
        {
          "attributes": {
            "NORMAL": 11,
            "POSITION": 10,
            "TANGENT": 12,
            "TEXCOORD_0": 13
          },
          "indices": 14,
          "material": 0,
          "mode": 4
        }
      ]
    },
    {
      "name": "defaultMaterial",
      "primitives": [
        {
          "attributes": {
            "NORMAL": 16,
            "POSITION": 15,
            "TANGENT": 17,
            "TEXCOORD_0": 18
          },
          "indices": 19,
          "material": 0,
          "mode": 4
        }
      ]
    },
    {
      "name": "defaultMaterial",
      "primitives": [
        {
          "attributes": {
            "NORMAL": 21,
            "POSITION": 20,
            "TANGENT": 22,
            "TEXCOORD_0": 23
          },
          "indices": 24,
          "material": 0,
          "mode": 4
        }
      ]
    },
    {
      "name": "defaultMaterial",
      "primitives": [
        {
          "attributes": {
            "NORMAL": 26,
            "POSITION": 25,
            "TANGENT": 27,
            "TEXCOORD_0": 28
          },
          "indices": 29,
          "material": 0,
          "mode": 4
        }
      ]
    },
    {
      "name": "defaultMaterial",
      "primitives": [
        {
          "attributes": {
            "NORMAL": 31,
            "POSITION": 30,
            "TANGENT": 32,
            "TEXCOORD_0": 33
          },
          "indices": 34,
          "material": 0,
          "mode": 4
        }
      ]
    }
  ],
  "nodes": [
    {
      "children": [
        1
      ],
      "matrix": [
        1.0,
        0.0,
        0.0,
        0.0,
        0.0,
        2.220446049250313e-16,
        -1.0,
        0.0,
        0.0,
        1.0,
        2.220446049250313e-16,
        0.0,
        0.0,
        0.0,
        0.0,
        1.0
      ],
      "name": "Sketchfab_model"
    },
    {
      "children": [
        2
      ],
      "matrix": [
        1.0,
        0.0,
        0.0,
        0.0,
        0.0,
        -4.371139006309477e-08,
        0.999999999999999,
        0.0,
        0.0,
        -0.999999999999999,
        -4.371139006309477e-08,
        0.0,
        0.0,
        0.0,
        0.0,
        1.0
      ],
      "name": "Collada visual scene group"
    },
    {
      "children": [
        3,
        4,
        5,
        6,
        7,
        8,
        9
      ],
      "name": "football_soccer_field"
    },
    {
      "mesh": 0,
      "name": "defaultMaterial"
    },
    {
      "mesh": 1,
      "name": "defaultMaterial"
    },
    {
      "mesh": 2,
      "name": "defaultMaterial"
    },
    {
      "mesh": 3,
      "name": "defaultMaterial"
    },
    {
      "mesh": 4,
      "name": "defaultMaterial"
    },
    {
      "mesh": 5,
      "name": "defaultMaterial"
    },
    {
      "mesh": 6,
      "name": "defaultMaterial"
    }
  ],
  "samplers": [
    {
      "magFilter": 9729,
      "minFilter": 9987,
      "wrapS": 10497,
      "wrapT": 10497
    }
  ],
  "scene": 0,
  "scenes": [
    {
      "name": "Sketchfab_Scene",
      "nodes": [
        0
      ]
    }
  ],
  "textures": [
    {
      "sampler": 0,
      "source": 0
    },
    {
      "sampler": 0,
      "source": 1
    },
    {
      "sampler": 0,
      "source": 2
    },
    {
      "sampler": 0,
      "source": 3
    }
  ]
}
